<mxfile host="app.diagrams.net" modified="2020-11-20T07:17:54.269Z" agent="5.0 (Windows NT 6.1; Win64; x64) AppleWebKit/537.36 (KHTML, like Gecko) Chrome/86.0.4240.75 Safari/537.36" etag="Et0VjM7k4IdQsATpraJP" version="13.10.0" type="github">
  <diagram id="VGZ84aJspqLmGljLhobt" name="Page-1">
    <mxGraphModel dx="868" dy="482" grid="1" gridSize="10" guides="1" tooltips="1" connect="1" arrows="1" fold="1" page="1" pageScale="1" pageWidth="850" pageHeight="1100" math="0" shadow="0">
      <root>
        <mxCell id="0" />
        <mxCell id="1" parent="0" />
        <mxCell id="yQVcQP6CZyJUVPLrPdN0-18" style="edgeStyle=orthogonalEdgeStyle;rounded=0;orthogonalLoop=1;jettySize=auto;html=1;startArrow=diamondThin;startFill=0;startSize=17;endArrow=classic;endFill=1;endSize=8;strokeWidth=1;exitX=1;exitY=0.5;exitDx=0;exitDy=0;entryX=0;entryY=0.5;entryDx=0;entryDy=0;" parent="1" source="yQVcQP6CZyJUVPLrPdN0-39" target="yQVcQP6CZyJUVPLrPdN0-49" edge="1">
          <mxGeometry relative="1" as="geometry">
            <mxPoint x="340" y="595" as="sourcePoint" />
            <mxPoint x="540" y="591" as="targetPoint" />
            <Array as="points" />
          </mxGeometry>
        </mxCell>
        <mxCell id="yQVcQP6CZyJUVPLrPdN0-23" style="edgeStyle=orthogonalEdgeStyle;rounded=0;orthogonalLoop=1;jettySize=auto;html=1;startArrow=none;startFill=0;startSize=17;endArrow=block;endFill=1;endSize=8;strokeWidth=1;dashed=1;entryX=0.173;entryY=1;entryDx=0;entryDy=0;entryPerimeter=0;" parent="1" target="yQVcQP6CZyJUVPLrPdN0-39" edge="1">
          <mxGeometry relative="1" as="geometry">
            <mxPoint x="239.03999999999996" y="642.992" as="targetPoint" />
            <Array as="points">
              <mxPoint x="100" y="682" />
              <mxPoint x="209" y="682" />
            </Array>
            <mxPoint x="100" y="752" as="sourcePoint" />
          </mxGeometry>
        </mxCell>
        <mxCell id="yQVcQP6CZyJUVPLrPdN0-19" value="XmlReporter" style="swimlane;fontStyle=0;childLayout=stackLayout;horizontal=1;startSize=26;fillColor=none;horizontalStack=0;resizeParent=1;resizeParentMax=0;resizeLast=0;collapsible=1;marginBottom=0;" parent="1" vertex="1">
          <mxGeometry x="30" y="752" width="140" height="104" as="geometry" />
        </mxCell>
        <mxCell id="yQVcQP6CZyJUVPLrPdN0-20" value="+ field: type" style="text;strokeColor=none;fillColor=none;align=left;verticalAlign=top;spacingLeft=4;spacingRight=4;overflow=hidden;rotatable=0;points=[[0,0.5],[1,0.5]];portConstraint=eastwest;" parent="yQVcQP6CZyJUVPLrPdN0-19" vertex="1">
          <mxGeometry y="26" width="140" height="26" as="geometry" />
        </mxCell>
        <mxCell id="yQVcQP6CZyJUVPLrPdN0-21" value="+ field: type" style="text;strokeColor=none;fillColor=none;align=left;verticalAlign=top;spacingLeft=4;spacingRight=4;overflow=hidden;rotatable=0;points=[[0,0.5],[1,0.5]];portConstraint=eastwest;" parent="yQVcQP6CZyJUVPLrPdN0-19" vertex="1">
          <mxGeometry y="52" width="140" height="26" as="geometry" />
        </mxCell>
        <mxCell id="yQVcQP6CZyJUVPLrPdN0-22" value="+ field: type" style="text;strokeColor=none;fillColor=none;align=left;verticalAlign=top;spacingLeft=4;spacingRight=4;overflow=hidden;rotatable=0;points=[[0,0.5],[1,0.5]];portConstraint=eastwest;" parent="yQVcQP6CZyJUVPLrPdN0-19" vertex="1">
          <mxGeometry y="78" width="140" height="26" as="geometry" />
        </mxCell>
        <mxCell id="yQVcQP6CZyJUVPLrPdN0-33" style="edgeStyle=orthogonalEdgeStyle;rounded=0;orthogonalLoop=1;jettySize=auto;html=1;entryX=0.5;entryY=1;entryDx=0;entryDy=0;dashed=1;startArrow=none;startFill=0;startSize=17;endArrow=block;endFill=1;endSize=8;strokeWidth=1;" parent="1" source="yQVcQP6CZyJUVPLrPdN0-29" target="yQVcQP6CZyJUVPLrPdN0-39" edge="1">
          <mxGeometry relative="1" as="geometry">
            <mxPoint x="267.03999999999996" y="640.99" as="targetPoint" />
            <Array as="points">
              <mxPoint x="245" y="722" />
              <mxPoint x="245" y="722" />
            </Array>
          </mxGeometry>
        </mxCell>
        <mxCell id="yQVcQP6CZyJUVPLrPdN0-29" value="JsonReporter" style="swimlane;fontStyle=0;childLayout=stackLayout;horizontal=1;startSize=26;fillColor=none;horizontalStack=0;resizeParent=1;resizeParentMax=0;resizeLast=0;collapsible=1;marginBottom=0;" parent="1" vertex="1">
          <mxGeometry x="180" y="752" width="140" height="104" as="geometry" />
        </mxCell>
        <mxCell id="yQVcQP6CZyJUVPLrPdN0-30" value="+ field: type" style="text;strokeColor=none;fillColor=none;align=left;verticalAlign=top;spacingLeft=4;spacingRight=4;overflow=hidden;rotatable=0;points=[[0,0.5],[1,0.5]];portConstraint=eastwest;" parent="yQVcQP6CZyJUVPLrPdN0-29" vertex="1">
          <mxGeometry y="26" width="140" height="26" as="geometry" />
        </mxCell>
        <mxCell id="yQVcQP6CZyJUVPLrPdN0-31" value="+ field: type" style="text;strokeColor=none;fillColor=none;align=left;verticalAlign=top;spacingLeft=4;spacingRight=4;overflow=hidden;rotatable=0;points=[[0,0.5],[1,0.5]];portConstraint=eastwest;" parent="yQVcQP6CZyJUVPLrPdN0-29" vertex="1">
          <mxGeometry y="52" width="140" height="26" as="geometry" />
        </mxCell>
        <mxCell id="yQVcQP6CZyJUVPLrPdN0-32" value="+ field: type" style="text;strokeColor=none;fillColor=none;align=left;verticalAlign=top;spacingLeft=4;spacingRight=4;overflow=hidden;rotatable=0;points=[[0,0.5],[1,0.5]];portConstraint=eastwest;" parent="yQVcQP6CZyJUVPLrPdN0-29" vertex="1">
          <mxGeometry y="78" width="140" height="26" as="geometry" />
        </mxCell>
        <mxCell id="yQVcQP6CZyJUVPLrPdN0-38" style="edgeStyle=orthogonalEdgeStyle;rounded=0;orthogonalLoop=1;jettySize=auto;html=1;entryX=0.75;entryY=1;entryDx=0;entryDy=0;dashed=1;startArrow=none;startFill=0;startSize=17;endArrow=block;endFill=1;endSize=8;strokeWidth=1;" parent="1" source="yQVcQP6CZyJUVPLrPdN0-34" target="yQVcQP6CZyJUVPLrPdN0-39" edge="1">
          <mxGeometry relative="1" as="geometry">
            <mxPoint x="295.03999999999996" y="638.988" as="targetPoint" />
            <Array as="points">
              <mxPoint x="410" y="682" />
              <mxPoint x="273" y="682" />
            </Array>
          </mxGeometry>
        </mxCell>
        <mxCell id="yQVcQP6CZyJUVPLrPdN0-34" value="CsvReporter" style="swimlane;fontStyle=0;childLayout=stackLayout;horizontal=1;startSize=26;fillColor=none;horizontalStack=0;resizeParent=1;resizeParentMax=0;resizeLast=0;collapsible=1;marginBottom=0;" parent="1" vertex="1">
          <mxGeometry x="340" y="752" width="140" height="104" as="geometry" />
        </mxCell>
        <mxCell id="yQVcQP6CZyJUVPLrPdN0-35" value="+ field: type" style="text;strokeColor=none;fillColor=none;align=left;verticalAlign=top;spacingLeft=4;spacingRight=4;overflow=hidden;rotatable=0;points=[[0,0.5],[1,0.5]];portConstraint=eastwest;" parent="yQVcQP6CZyJUVPLrPdN0-34" vertex="1">
          <mxGeometry y="26" width="140" height="26" as="geometry" />
        </mxCell>
        <mxCell id="yQVcQP6CZyJUVPLrPdN0-36" value="+ field: type" style="text;strokeColor=none;fillColor=none;align=left;verticalAlign=top;spacingLeft=4;spacingRight=4;overflow=hidden;rotatable=0;points=[[0,0.5],[1,0.5]];portConstraint=eastwest;" parent="yQVcQP6CZyJUVPLrPdN0-34" vertex="1">
          <mxGeometry y="52" width="140" height="26" as="geometry" />
        </mxCell>
        <mxCell id="yQVcQP6CZyJUVPLrPdN0-37" value="+ field: type" style="text;strokeColor=none;fillColor=none;align=left;verticalAlign=top;spacingLeft=4;spacingRight=4;overflow=hidden;rotatable=0;points=[[0,0.5],[1,0.5]];portConstraint=eastwest;" parent="yQVcQP6CZyJUVPLrPdN0-34" vertex="1">
          <mxGeometry y="78" width="140" height="26" as="geometry" />
        </mxCell>
        <mxCell id="yQVcQP6CZyJUVPLrPdN0-39" value="«interface»&lt;br&gt;&lt;span style=&quot;font-weight: 700&quot;&gt;IReporter&lt;/span&gt;" style="html=1;" parent="1" vertex="1">
          <mxGeometry x="190" y="570" width="110" height="50" as="geometry" />
        </mxCell>
        <mxCell id="yQVcQP6CZyJUVPLrPdN0-50" style="edgeStyle=orthogonalEdgeStyle;rounded=0;orthogonalLoop=1;jettySize=auto;html=1;dashed=1;startArrow=none;startFill=0;startSize=17;endArrow=block;endFill=1;endSize=8;strokeWidth=1;" parent="1" source="yQVcQP6CZyJUVPLrPdN0-40" target="yQVcQP6CZyJUVPLrPdN0-49" edge="1">
          <mxGeometry relative="1" as="geometry">
            <Array as="points">
              <mxPoint x="580" y="652" />
              <mxPoint x="580" y="652" />
            </Array>
          </mxGeometry>
        </mxCell>
        <mxCell id="yQVcQP6CZyJUVPLrPdN0-40" value="FileRepository" style="swimlane;fontStyle=0;childLayout=stackLayout;horizontal=1;startSize=26;fillColor=none;horizontalStack=0;resizeParent=1;resizeParentMax=0;resizeLast=0;collapsible=1;marginBottom=0;" parent="1" vertex="1">
          <mxGeometry x="510" y="749" width="140" height="104" as="geometry" />
        </mxCell>
        <mxCell id="yQVcQP6CZyJUVPLrPdN0-41" value="+ field: type" style="text;strokeColor=none;fillColor=none;align=left;verticalAlign=top;spacingLeft=4;spacingRight=4;overflow=hidden;rotatable=0;points=[[0,0.5],[1,0.5]];portConstraint=eastwest;" parent="yQVcQP6CZyJUVPLrPdN0-40" vertex="1">
          <mxGeometry y="26" width="140" height="26" as="geometry" />
        </mxCell>
        <mxCell id="yQVcQP6CZyJUVPLrPdN0-42" value="+ field: type" style="text;strokeColor=none;fillColor=none;align=left;verticalAlign=top;spacingLeft=4;spacingRight=4;overflow=hidden;rotatable=0;points=[[0,0.5],[1,0.5]];portConstraint=eastwest;" parent="yQVcQP6CZyJUVPLrPdN0-40" vertex="1">
          <mxGeometry y="52" width="140" height="26" as="geometry" />
        </mxCell>
        <mxCell id="yQVcQP6CZyJUVPLrPdN0-43" value="+ field: type" style="text;strokeColor=none;fillColor=none;align=left;verticalAlign=top;spacingLeft=4;spacingRight=4;overflow=hidden;rotatable=0;points=[[0,0.5],[1,0.5]];portConstraint=eastwest;" parent="yQVcQP6CZyJUVPLrPdN0-40" vertex="1">
          <mxGeometry y="78" width="140" height="26" as="geometry" />
        </mxCell>
        <mxCell id="yQVcQP6CZyJUVPLrPdN0-51" style="edgeStyle=orthogonalEdgeStyle;rounded=0;orthogonalLoop=1;jettySize=auto;html=1;entryX=0.75;entryY=1;entryDx=0;entryDy=0;dashed=1;startArrow=none;startFill=0;startSize=17;endArrow=block;endFill=1;endSize=8;strokeWidth=1;" parent="1" source="yQVcQP6CZyJUVPLrPdN0-44" target="yQVcQP6CZyJUVPLrPdN0-49" edge="1">
          <mxGeometry relative="1" as="geometry">
            <Array as="points">
              <mxPoint x="730" y="692" />
              <mxPoint x="623" y="692" />
            </Array>
          </mxGeometry>
        </mxCell>
        <mxCell id="yQVcQP6CZyJUVPLrPdN0-44" value="SiteParser" style="swimlane;fontStyle=0;childLayout=stackLayout;horizontal=1;startSize=26;fillColor=none;horizontalStack=0;resizeParent=1;resizeParentMax=0;resizeLast=0;collapsible=1;marginBottom=0;" parent="1" vertex="1">
          <mxGeometry x="670" y="749" width="140" height="104" as="geometry" />
        </mxCell>
        <mxCell id="yQVcQP6CZyJUVPLrPdN0-45" value="+ field: type" style="text;strokeColor=none;fillColor=none;align=left;verticalAlign=top;spacingLeft=4;spacingRight=4;overflow=hidden;rotatable=0;points=[[0,0.5],[1,0.5]];portConstraint=eastwest;" parent="yQVcQP6CZyJUVPLrPdN0-44" vertex="1">
          <mxGeometry y="26" width="140" height="26" as="geometry" />
        </mxCell>
        <mxCell id="yQVcQP6CZyJUVPLrPdN0-46" value="+ field: type" style="text;strokeColor=none;fillColor=none;align=left;verticalAlign=top;spacingLeft=4;spacingRight=4;overflow=hidden;rotatable=0;points=[[0,0.5],[1,0.5]];portConstraint=eastwest;" parent="yQVcQP6CZyJUVPLrPdN0-44" vertex="1">
          <mxGeometry y="52" width="140" height="26" as="geometry" />
        </mxCell>
        <mxCell id="yQVcQP6CZyJUVPLrPdN0-47" value="+ field: type" style="text;strokeColor=none;fillColor=none;align=left;verticalAlign=top;spacingLeft=4;spacingRight=4;overflow=hidden;rotatable=0;points=[[0,0.5],[1,0.5]];portConstraint=eastwest;" parent="yQVcQP6CZyJUVPLrPdN0-44" vertex="1">
          <mxGeometry y="78" width="140" height="26" as="geometry" />
        </mxCell>
        <mxCell id="yQVcQP6CZyJUVPLrPdN0-49" value="«interface»&lt;br&gt;IDataRepository" style="html=1;" parent="1" vertex="1">
          <mxGeometry x="540" y="570" width="110" height="50" as="geometry" />
        </mxCell>
        <mxCell id="Ju6QiaDljYoV6Rc-FCee-17" value="«interface»&#xa;IVacationService" style="swimlane;fontStyle=1;childLayout=stackLayout;horizontal=1;startSize=26;fillColor=none;horizontalStack=0;resizeParent=1;resizeParentMax=0;resizeLast=0;collapsible=1;marginBottom=0;" vertex="1" parent="1">
          <mxGeometry x="130" y="110" width="140" height="52" as="geometry" />
        </mxCell>
        <mxCell id="Ju6QiaDljYoV6Rc-FCee-20" value="+ sendOnVacation()" style="text;strokeColor=none;fillColor=none;align=left;verticalAlign=top;spacingLeft=4;spacingRight=4;overflow=hidden;rotatable=0;points=[[0,0.5],[1,0.5]];portConstraint=eastwest;" vertex="1" parent="Ju6QiaDljYoV6Rc-FCee-17">
          <mxGeometry y="26" width="140" height="26" as="geometry" />
        </mxCell>
        <mxCell id="Ju6QiaDljYoV6Rc-FCee-22" value="VacationService" style="swimlane;fontStyle=1;align=center;verticalAlign=top;childLayout=stackLayout;horizontal=1;startSize=26;horizontalStack=0;resizeParent=1;resizeParentMax=0;resizeLast=0;collapsible=1;marginBottom=0;" vertex="1" parent="1">
          <mxGeometry x="120" y="260" width="160" height="60" as="geometry" />
        </mxCell>
        <mxCell id="Ju6QiaDljYoV6Rc-FCee-24" value="" style="line;strokeWidth=1;fillColor=none;align=left;verticalAlign=middle;spacingTop=-1;spacingLeft=3;spacingRight=3;rotatable=0;labelPosition=right;points=[];portConstraint=eastwest;" vertex="1" parent="Ju6QiaDljYoV6Rc-FCee-22">
          <mxGeometry y="26" width="160" height="8" as="geometry" />
        </mxCell>
        <mxCell id="Ju6QiaDljYoV6Rc-FCee-26" value="+ sendOnVacation()" style="text;strokeColor=none;fillColor=none;align=left;verticalAlign=top;spacingLeft=4;spacingRight=4;overflow=hidden;rotatable=0;points=[[0,0.5],[1,0.5]];portConstraint=eastwest;" vertex="1" parent="Ju6QiaDljYoV6Rc-FCee-22">
          <mxGeometry y="34" width="160" height="26" as="geometry" />
        </mxCell>
        <mxCell id="Ju6QiaDljYoV6Rc-FCee-27" value="" style="endArrow=block;dashed=1;endFill=0;endSize=12;html=1;exitX=0.5;exitY=0;exitDx=0;exitDy=0;" edge="1" parent="1" source="Ju6QiaDljYoV6Rc-FCee-22">
          <mxGeometry width="160" relative="1" as="geometry">
            <mxPoint x="80" y="320" as="sourcePoint" />
            <mxPoint x="200" y="165" as="targetPoint" />
          </mxGeometry>
        </mxCell>
        <mxCell id="Ju6QiaDljYoV6Rc-FCee-28" value="BaseVAcationDecorator" style="swimlane;fontStyle=1;childLayout=stackLayout;horizontal=1;startSize=26;fillColor=none;horizontalStack=0;resizeParent=1;resizeParentMax=0;resizeLast=0;collapsible=1;marginBottom=0;" vertex="1" parent="1">
          <mxGeometry x="320" y="230" width="290" height="112" as="geometry" />
        </mxCell>
        <mxCell id="Ju6QiaDljYoV6Rc-FCee-42" value="- vacationService: IVacationService" style="text;strokeColor=none;fillColor=none;align=left;verticalAlign=top;spacingLeft=4;spacingRight=4;overflow=hidden;rotatable=0;points=[[0,0.5],[1,0.5]];portConstraint=eastwest;" vertex="1" parent="Ju6QiaDljYoV6Rc-FCee-28">
          <mxGeometry y="26" width="290" height="26" as="geometry" />
        </mxCell>
        <mxCell id="Ju6QiaDljYoV6Rc-FCee-45" value="" style="line;strokeWidth=1;fillColor=none;align=left;verticalAlign=middle;spacingTop=-1;spacingLeft=3;spacingRight=3;rotatable=0;labelPosition=right;points=[];portConstraint=eastwest;" vertex="1" parent="Ju6QiaDljYoV6Rc-FCee-28">
          <mxGeometry y="52" width="290" height="8" as="geometry" />
        </mxCell>
        <mxCell id="Ju6QiaDljYoV6Rc-FCee-44" value="- BaseVacationDecorator(IVacationService)" style="text;strokeColor=none;fillColor=none;align=left;verticalAlign=top;spacingLeft=4;spacingRight=4;overflow=hidden;rotatable=0;points=[[0,0.5],[1,0.5]];portConstraint=eastwest;" vertex="1" parent="Ju6QiaDljYoV6Rc-FCee-28">
          <mxGeometry y="60" width="290" height="26" as="geometry" />
        </mxCell>
        <mxCell id="Ju6QiaDljYoV6Rc-FCee-43" value="+ sendOnVacation()" style="text;strokeColor=none;fillColor=none;align=left;verticalAlign=top;spacingLeft=4;spacingRight=4;overflow=hidden;rotatable=0;points=[[0,0.5],[1,0.5]];portConstraint=eastwest;" vertex="1" parent="Ju6QiaDljYoV6Rc-FCee-28">
          <mxGeometry y="86" width="290" height="26" as="geometry" />
        </mxCell>
        <mxCell id="Ju6QiaDljYoV6Rc-FCee-30" value="Extends" style="endArrow=block;endSize=16;endFill=0;html=1;exitX=0.5;exitY=0;exitDx=0;exitDy=0;entryX=0.75;entryY=1.038;entryDx=0;entryDy=0;entryPerimeter=0;" edge="1" parent="1" source="Ju6QiaDljYoV6Rc-FCee-28" target="Ju6QiaDljYoV6Rc-FCee-20">
          <mxGeometry width="160" relative="1" as="geometry">
            <mxPoint x="200" y="150" as="sourcePoint" />
            <mxPoint x="360" y="150" as="targetPoint" />
            <Array as="points">
              <mxPoint x="465" y="200" />
              <mxPoint x="235" y="200" />
            </Array>
          </mxGeometry>
        </mxCell>
        <mxCell id="Ju6QiaDljYoV6Rc-FCee-31" value="ReportVacationDecorator" style="swimlane;fontStyle=0;childLayout=stackLayout;horizontal=1;startSize=26;fillColor=none;horizontalStack=0;resizeParent=1;resizeParentMax=0;resizeLast=0;collapsible=1;marginBottom=0;" vertex="1" parent="1">
          <mxGeometry x="220" y="400" width="140" height="78" as="geometry" />
        </mxCell>
        <mxCell id="Ju6QiaDljYoV6Rc-FCee-33" value="+ field: type" style="text;strokeColor=none;fillColor=none;align=left;verticalAlign=top;spacingLeft=4;spacingRight=4;overflow=hidden;rotatable=0;points=[[0,0.5],[1,0.5]];portConstraint=eastwest;" vertex="1" parent="Ju6QiaDljYoV6Rc-FCee-31">
          <mxGeometry y="26" width="140" height="26" as="geometry" />
        </mxCell>
        <mxCell id="Ju6QiaDljYoV6Rc-FCee-34" value="+ field: type" style="text;strokeColor=none;fillColor=none;align=left;verticalAlign=top;spacingLeft=4;spacingRight=4;overflow=hidden;rotatable=0;points=[[0,0.5],[1,0.5]];portConstraint=eastwest;" vertex="1" parent="Ju6QiaDljYoV6Rc-FCee-31">
          <mxGeometry y="52" width="140" height="26" as="geometry" />
        </mxCell>
        <mxCell id="Ju6QiaDljYoV6Rc-FCee-38" value="TableVacationDecorator" style="swimlane;fontStyle=0;childLayout=stackLayout;horizontal=1;startSize=26;fillColor=none;horizontalStack=0;resizeParent=1;resizeParentMax=0;resizeLast=0;collapsible=1;marginBottom=0;" vertex="1" parent="1">
          <mxGeometry x="425" y="400" width="140" height="78" as="geometry" />
        </mxCell>
        <mxCell id="Ju6QiaDljYoV6Rc-FCee-39" value="+ field: type" style="text;strokeColor=none;fillColor=none;align=left;verticalAlign=top;spacingLeft=4;spacingRight=4;overflow=hidden;rotatable=0;points=[[0,0.5],[1,0.5]];portConstraint=eastwest;" vertex="1" parent="Ju6QiaDljYoV6Rc-FCee-38">
          <mxGeometry y="26" width="140" height="26" as="geometry" />
        </mxCell>
        <mxCell id="Ju6QiaDljYoV6Rc-FCee-40" value="+ field: type" style="text;strokeColor=none;fillColor=none;align=left;verticalAlign=top;spacingLeft=4;spacingRight=4;overflow=hidden;rotatable=0;points=[[0,0.5],[1,0.5]];portConstraint=eastwest;" vertex="1" parent="Ju6QiaDljYoV6Rc-FCee-38">
          <mxGeometry y="52" width="140" height="26" as="geometry" />
        </mxCell>
        <mxCell id="Ju6QiaDljYoV6Rc-FCee-41" value="Extends" style="endArrow=block;endSize=16;endFill=0;html=1;exitX=0.5;exitY=0;exitDx=0;exitDy=0;entryX=0.25;entryY=1;entryDx=0;entryDy=0;" edge="1" parent="1" source="Ju6QiaDljYoV6Rc-FCee-31" target="Ju6QiaDljYoV6Rc-FCee-28">
          <mxGeometry width="160" relative="1" as="geometry">
            <mxPoint x="235" y="390" as="sourcePoint" />
            <mxPoint x="80" y="292.98800000000006" as="targetPoint" />
            <Array as="points">
              <mxPoint x="290" y="370" />
              <mxPoint x="393" y="370" />
            </Array>
          </mxGeometry>
        </mxCell>
        <mxCell id="Ju6QiaDljYoV6Rc-FCee-46" value="Extends" style="endArrow=block;endSize=16;endFill=0;html=1;exitX=0.457;exitY=0.013;exitDx=0;exitDy=0;entryX=0.583;entryY=1.077;entryDx=0;entryDy=0;entryPerimeter=0;exitPerimeter=0;" edge="1" parent="1" source="Ju6QiaDljYoV6Rc-FCee-38" target="Ju6QiaDljYoV6Rc-FCee-43">
          <mxGeometry x="-0.2567" y="-5" width="160" relative="1" as="geometry">
            <mxPoint x="490" y="390" as="sourcePoint" />
            <mxPoint x="592.5" y="342" as="targetPoint" />
            <Array as="points">
              <mxPoint x="490" y="370" />
            </Array>
            <mxPoint as="offset" />
          </mxGeometry>
        </mxCell>
      </root>
    </mxGraphModel>
  </diagram>
</mxfile>
